# xmcd
#
# Track frame offsets:
#	150
#	20162
#	35962
#	55397
#	73190
#	98190
#	116347
#	128350
#	154640
#	172262
#	192682
#	213177
#	226862
#	243547
#	260127
#	275857
#	304965
#
# Disc length: 4374 seconds
#
# Revision: 2
# Processed by: cddbd v1.4PL0 Copyright (c) Steve Scherf et al.
# Submitted via: audiograbber 1.81.03
#
DISCID=09111411
DTITLE=Various Artist - Blue, Bluer, Bluest
DYEAR=1997
DGENRE=Blues
TTITLE0=Roy Gaines - Bluesman for Life
TTITLE1=Cookie McGhee - You're a Dog
TTITLE2=Percy Strother - Get Out of My House
TTITLE3=Sweet Betty - They Call Me Sweet Betty
TTITLE4=Jonnie Marshall - Sweetest Thing I Know
TTITLE5=Randy McAllister - I Don't Like It
TTITLE6=Jackie Payne - Hit The Ground Running
TTITLE7=U.P. Wilson - Walkin'
TTITLE8=Mick Martin and The Blues Rockers - Love Hound
TTITLE9=Johnny Rawls - I Don't Want No Woman Tieing me Down
TTITLE10=Bobby Gilmore - Strange Bed
TTITLE11=Otis Grand (with Phillip Walker) - Insomnia
TTITLE12=Lonnie Shields - Blues Is On Fire
TTITLE13=Kenny Blue Ray - No Time To Waste
TTITLE14=Chris Beard - You Ain't All That
TTITLE15=Alanda Williams - Looking For My Baby
TTITLE16=Deitra Farr - Bad Company
EXTD=
EXTT0=
EXTT1=
EXTT2=
EXTT3=
EXTT4=
EXTT5=
EXTT6=
EXTT7=
EXTT8=
EXTT9=
EXTT10=
EXTT11=
EXTT12=
EXTT13=
EXTT14=
EXTT15=
EXTT16=
PLAYORDER=
